<svg aria-hidden="true" style="position: absolute; width: 0; height: 0; overflow: hidden;" version="1.1" xmlns="http://www.w3.org/2000/svg" xmlns:xlink="http://www.w3.org/1999/xlink">
<defs>
<symbol id="icon-Facebook" viewBox="0 0 32 32">
<path fill="#f53838" style="fill: var(--color1, #f53838)" d="M23.256 10.087c0 4.182-3.39 7.572-7.572 7.572s-7.572-3.39-7.572-7.572c0-4.182 3.39-7.572 7.572-7.572s7.572 3.39 7.572 7.572z"></path>
<path fill="#fff" style="fill: var(--color2, #fff)" d="M15.684 2.515c-4.182 0-7.572 3.39-7.572 7.572s3.39 7.572 7.572 7.572c4.182 0 7.572-3.39 7.572-7.572s-3.39-7.572-7.572-7.572zM17.478 7.748h-1.138c-0.135 0-0.285 0.177-0.285 0.413v0.822h1.424l-0.215 1.172h-1.208v3.518h-1.343v-3.518h-1.219v-1.172h1.219v-0.689c0-0.989 0.686-1.793 1.628-1.793h1.138v1.247z"></path>
</symbol>
<symbol id="icon-Instagram" viewBox="0 0 32 32">
<path fill="#f53838" style="fill: var(--color1, #f53838)" d="M23.346 10.087c0 4.182-3.39 7.572-7.572 7.572s-7.572-3.39-7.572-7.572c0-4.182 3.39-7.572 7.572-7.572s7.572 3.39 7.572 7.572z"></path>
<path fill="#fff" style="fill: var(--color2, #fff)" d="M18.141 10.087c0 0.628-0.249 1.229-0.693 1.673s-1.046 0.693-1.673 0.693c-0.628 0-1.229-0.249-1.673-0.693s-0.693-1.046-0.693-1.673c0-0.135 0.014-0.267 0.039-0.394h-0.827v3.153c0 0.219 0.177 0.397 0.397 0.397h5.517c0.105-0 0.206-0.042 0.28-0.117s0.116-0.175 0.116-0.28v-3.153h-0.827c0.024 0.128 0.039 0.259 0.039 0.394zM15.775 11.665c0.207-0 0.412-0.041 0.604-0.12s0.365-0.196 0.512-0.342c0.146-0.147 0.263-0.321 0.342-0.512s0.12-0.397 0.12-0.604c-0-0.207-0.041-0.412-0.12-0.604s-0.196-0.365-0.342-0.512c-0.147-0.146-0.321-0.263-0.512-0.342s-0.397-0.12-0.604-0.12c-0.418 0-0.82 0.166-1.116 0.462s-0.462 0.697-0.462 1.116 0.166 0.82 0.462 1.116c0.296 0.296 0.697 0.462 1.116 0.462zM17.668 8.431h0.946c0.063 0 0.123-0.025 0.168-0.069s0.070-0.105 0.070-0.167v-0.946c0-0.063-0.025-0.123-0.070-0.168s-0.105-0.069-0.168-0.069h-0.946c-0.063 0-0.123 0.025-0.168 0.069s-0.070 0.105-0.070 0.168v0.946c0.001 0.13 0.107 0.237 0.237 0.237zM15.775 2.515c-2.008 0-3.934 0.798-5.354 2.218s-2.218 3.346-2.218 5.354c0 2.008 0.798 3.934 2.218 5.354s3.346 2.218 5.354 2.218c0.994 0 1.979-0.196 2.898-0.576s1.753-0.938 2.457-1.641c0.703-0.703 1.261-1.538 1.641-2.456s0.576-1.903 0.576-2.898-0.196-1.979-0.576-2.898c-0.381-0.919-0.938-1.753-1.641-2.456s-1.538-1.261-2.457-1.641c-0.919-0.381-1.903-0.576-2.898-0.576zM19.718 13.154c0 0.482-0.394 0.876-0.876 0.876h-6.135c-0.482 0-0.876-0.394-0.876-0.876v-6.135c0-0.482 0.394-0.876 0.876-0.876h6.135c0.482 0 0.876 0.394 0.876 0.876v6.135z"></path>
</symbol>
<symbol id="icon-Twitter" viewBox="0 0 32 32">
<path fill="#f53838" style="fill: var(--color1, #f53838)" d="M23.527 10.087c0 4.182-3.39 7.572-7.572 7.572s-7.572-3.39-7.572-7.572c0-4.182 3.39-7.572 7.572-7.572s7.572 3.39 7.572 7.572z"></path>
<path fill="#fff" style="fill: var(--color2, #fff)" d="M15.955 2.515c-4.182 0-7.572 3.39-7.572 7.572s3.39 7.572 7.572 7.572c4.182 0 7.572-3.39 7.572-7.572s-3.39-7.572-7.572-7.572zM19.035 8.718c0.003 0.065 0.004 0.129 0.004 0.192 0 1.972-1.499 4.244-4.243 4.244-0.811 0.001-1.604-0.231-2.286-0.67 0.116 0.014 0.235 0.020 0.356 0.020 0.699 0 1.342-0.237 1.852-0.638-0.311-0.006-0.612-0.109-0.862-0.295s-0.435-0.444-0.531-0.74c0.223 0.042 0.453 0.034 0.673-0.026-0.338-0.068-0.641-0.251-0.859-0.518s-0.337-0.6-0.337-0.945v-0.018c0.201 0.111 0.431 0.179 0.676 0.187-0.316-0.211-0.54-0.534-0.626-0.905s-0.027-0.759 0.165-1.088c0.375 0.461 0.842 0.837 1.371 1.106s1.109 0.423 1.702 0.453c-0.075-0.32-0.043-0.656 0.092-0.956s0.366-0.546 0.655-0.701c0.29-0.155 0.623-0.21 0.947-0.157s0.622 0.213 0.846 0.453c0.334-0.066 0.654-0.189 0.946-0.362-0.111 0.346-0.344 0.639-0.655 0.826 0.296-0.036 0.584-0.115 0.857-0.236-0.2 0.3-0.452 0.561-0.744 0.772z"></path>
</symbol>
</defs>
</svg>
